<svg width="32" height="32" fill="none" xmlns="http://www.w3.org/2000/svg"><circle cx="16" cy="16" r="16" fill="#D8D8D8" fill-opacity=".01"/><mask id="a" style="mask-type:alpha" maskUnits="userSpaceOnUse" x="0" y="0" width="32" height="32"><circle cx="16" cy="16" r="16" fill="#fff"/></mask><g mask="url(#a)"><path fill-rule="evenodd" clip-rule="evenodd" d="M122.573 56.596c4.604-.004 9.207-.008 13.811-.008V50.4h-15.915c-3.409 0-6.876.115-10.363.231-7.927.265-15.958.533-23.643-.546-9.377-1.317-18.306-6.631-26.137-12.31-8.86-6.424-16.62-14.353-24.385-22.288C30.39 9.816 24.838 4.142 18.879-.987 15.311-4.062 11.636-7.03 7.75-9.577l-.247-.162c-4.029-2.645-10.975-7.207-14.406-1.573C-9.573-6.927-9.53-.46-9.492 5.22c.01 1.457.02 2.862-.017 4.167-.41 14.523-1.735 35.234-16.715 39.856-3.027.853-6.107 1.144-9.222 1.156-12.318.036-24.636.02-36.954 0a51.167 51.167 0 0 1-4.143-.16 34.418 34.418 0 0 1-4.253-.626c-8.35-1.769-15.982-6.378-23.599-10.979-10.815-6.532-21.598-13.044-34.355-11.375-8.62 1.127-15.677 6.227-22.739 11.33-6.946 5.02-13.897 10.043-22.345 11.294-3.194.414-6.396.514-9.608.518H-219v6.188c2.939 0 5.879.003 8.819.007 5.964.008 11.928.016 17.892-.008 6.348-.026 12.632-.432 18.436-3.623 4.131-2.272 7.78-5.501 11.363-8.703l.315-.282c6.614-5.913 13.448-12.023 21.969-13.801 13.75-2.871 25.173 4.958 36.645 12.821 9.25 6.34 18.53 12.7 29.088 13.494 1.376.078 2.752.094 4.129.094 4.228 0 8.46.033 12.693.066h.002c8.984.07 17.973.14 26.944-.105 5.015-.2 10.067-1.178 14.061-4.845 4.575-4.2 6.746-10.78 8.132-17.05 1.36-6.15 1.575-12.406 1.79-18.655.192-5.566.384-11.127 1.384-16.604 1.866-10.305 9.264-7.8 15.534-3.727 6.277 4.077 11.959 9.314 17.397 14.675 2.712 2.672 5.358 5.429 7.989 8.202 11.221 11.826 22.78 23.392 36.594 31.282 6.891 3.932 13.893 6.727 21.684 6.757 9.571.027 19.142.019 28.713.01ZM101.61 73.713H136.386v-6.53H99.098c-8.066-.001-15.021-2.32-22.11-6.567-4.636-2.78-9.065-5.996-13.362-9.39-6.67-5.27-12.936-11.144-19.004-17.26-2.826-2.85-5.58-5.86-8.344-8.882-7.004-7.658-14.074-15.387-22.554-20.731-2.756-1.74-6.71-4.096-9.888-2.508C.326 3.599-.196 9.354-.542 13.165l-.031.345c-.23 2.473-.354 4.957-.479 7.44-.108 2.156-.216 4.312-.393 6.462-1.207 14.503-3.213 35.873-18.66 39.185-6.317 1.354-13.14 1.075-19.79.803-2.678-.11-5.328-.217-7.906-.217-2.698 0-5.461.105-8.25.212-6.893.264-13.939.534-20.528-.774a28.514 28.514 0 0 1-2.125-.507c-8.336-2.326-15.482-8.267-22.414-14.031a277.065 277.065 0 0 0-4.972-4.07c-9.019-7.151-19.879-15.403-31.485-13.888-9.631 1.257-16.67 9.365-23.027 16.862l-.732.864-.004.005c-2.878 3.402-5.786 6.839-9.158 9.623-5.537 4.57-11.487 5.689-18.203 5.704h-30.3v6.53h32.797c10.963-.003 17.51-5.925 24.177-14.997a337.003 337.003 0 0 0 2.232-3.085c4.269-5.944 8.641-12.032 14.593-15.828 7.862-5.016 16.516-3.312 24.26 1.137 6.454 3.708 12.139 8.948 17.819 14.184 6.952 6.407 13.896 12.808 22.231 16.384 6.85 2.937 14.655 2.645 22.133 2.366 2.168-.081 4.308-.161 6.39-.161 3.339 0 6.686.044 10.036.09 7.171.096 14.355.192 21.494-.151 3.607-.247 7.134-1.12 10.179-3.403C-.456 62.579.687 45.515 1.596 31.947c.129-1.926.253-3.781.398-5.53.073-.905.117-1.966.165-3.116.235-5.66.559-13.483 4.932-15.556 4.765-2.26 11.265 3.475 15.094 6.852l.002.002.64.564c4.82 4.22 9.219 8.99 13.615 13.757 2.127 2.307 4.255 4.614 6.429 6.858 8.131 8.388 16.541 16.488 25.631 23.543 4.93 3.826 9.967 7.6 15.457 10.354.589.295 1.174.563 1.744.816a40.648 40.648 0 0 0 4.889 1.822c3.611 1.062 7.295 1.387 11.018 1.4Zm34.774 17.123H126.471c-6.553 0-13.107.002-19.66 0-4.527-.047-8.945-.804-13.235-2.45-10.785-4.139-19.82-12.678-28.466-20.85-.493-.465-.984-.93-1.474-1.391-7.104-6.698-13.908-13.763-20.714-20.831-1.618-1.68-3.236-3.36-4.858-5.035-.75-.775-1.496-1.557-2.243-2.34l-.004-.003c-3.452-3.615-6.923-7.251-10.765-10.315-2.574-2.054-6.087-4.805-9.394-4.044-3.824.88-4.799 6.366-5.442 9.984l-.002.012c-.758 4.265-1.079 8.608-1.399 12.947-.176 2.39-.353 4.78-.602 7.154l-.03.287c-.725 6.877-1.465 13.895-3.492 20.462-2.421 7.78-6.827 14.07-14.264 15.817-1.839.43-3.719.578-5.594.59-6.615.048-13.231.034-19.847.02-3.185-.008-6.37-.014-9.555-.014-2.793 0-5.636.099-8.498.198-6.494.226-13.079.456-19.372-.462-5.313-.784-10.03-3.788-14.275-7.331-5.38-4.49-10.131-9.842-14.87-15.179-1.723-1.94-3.444-3.88-5.193-5.774l-.523-.567c-6.835-7.411-15.246-16.532-24.988-17.808-11.331-1.484-18.043 11.1-22.837 20.643-.605 1.203-1.214 2.468-1.84 3.765-4.313 8.947-9.365 19.425-18.518 21.786-4.179 1.077-8.659.944-13.032.813a142.038 142.038 0 0 0-4.217-.084h-26.267v-6.867c4.101 0 8.208.047 12.318.095 8.576.1 17.162.2 25.712-.134.897-.036 1.8-.12 2.707-.25 10.16-2.05 15.326-11.566 20.531-21.156 4.544-8.371 9.119-16.799 17.074-20.362 13.818-6.19 27.956 9.022 38.404 20.263 1.725 1.856 3.35 3.603 4.855 5.129 7.616 7.714 16.294 16.092 27.051 16.393 11.471.32 22.97.22 34.462.12h.003c5.606-.05 11.21-.098 16.809-.098h.104c.617 0 1.232 0 1.843-.016 16.273-.445 20.51-17.908 22.21-33.371.346-3.142.591-6.296.837-9.45v-.001c.247-3.161.493-6.322.84-9.471l.108-1.004c.388-3.628.821-7.69 2.559-10.773 2.315-4.107 6.287-3.072 9.613-1.132 5.74 3.349 10.6 8.603 15.282 13.667.752.813 1.5 1.621 2.245 2.416 5.67 6.04 11.382 12.049 17.287 17.798a397.374 397.374 0 0 0 5.473 5.247l.79.738c8.896 8.322 18.248 17.07 29.021 21.982 3.316 1.51 6.756 2.582 10.317 3.039 8.409 1.075 17.098.814 25.708.557 3.765-.113 7.515-.225 11.22-.225v6.866Zm-8.427 17.136c2.809-.006 5.618-.012 8.426-.012v-7.212c-3.055 0-6.111.011-9.167.022-6.401.023-12.802.046-19.201-.032-2.558-.086-5.09-.479-7.589-1.09-3.144-.857-6.152-2.116-9.061-3.706-9.331-5.104-17.214-13.053-24.895-20.797l-.713-.718c-5.121-5.16-10.172-10.407-15.222-15.653-2.665-2.767-5.33-5.535-8.005-8.29l-.733-.756c-2.207-2.275-4.415-4.55-6.689-6.738-.465-.449-.989-.976-1.558-1.55-3.887-3.915-9.942-10.014-14.607-8.113-4.638 1.889-5.276 10.692-5.702 16.578-.073 1-.14 1.917-.218 2.7a380.666 380.666 0 0 0-.584 6.374c-.15 1.747-.3 3.495-.471 5.24-.356 3.64-.731 7.284-1.316 10.889C8.46 88.62 3.26 100.182-10.102 100.707c-.652.026-21.951.041-31.942.041-2.904 0-5.841.082-8.79.166-6.54.184-13.134.37-19.546-.342-10.072-1.138-17.854-9.838-24.557-17.64-2.389-2.78-4.707-5.638-7.025-8.496-3.659-4.51-7.318-9.022-11.256-13.23-5.676-6.064-13.585-14.117-22.028-12.775-8.947 1.422-13.671 13.005-17.106 21.428-.185.456-.367.902-.546 1.337a342.137 342.137 0 0 0-1.427 3.55c-3.349 8.42-7.018 17.645-14.128 22.505-.463.315-.927.606-1.393.872-.466.267-.933.51-1.401.73-3.091 1.454-6.395 1.854-9.719 1.894-8.57.016-17.141.011-25.712.006-4.106-.002-8.213-.004-12.32-.004v7.209l12.677.002c8.452.002 16.904.004 25.355-.002h.054c.881 0 1.774 0 2.677-.047a26.482 26.482 0 0 0 2.78-.313c.951-.158 1.89-.383 2.816-.676 9.769-3.059 15.001-13.11 18.74-22.971.751-1.98 1.488-4.269 2.269-6.695 3.133-9.728 6.978-21.668 15.287-24.802 8.94-3.373 17.979 6.948 23.638 13.467 3.797 4.374 7.342 9.006 10.887 13.638 3.023 3.95 6.046 7.9 9.225 11.69 6.577 7.84 14.248 15.777 24.285 16.611 6.494.525 13.095.379 19.664.233 3.049-.067 6.09-.134 9.111-.134h29.447c3.176-.001 6.357-.128 9.429-1.119 13.112-4.757 14.565-24.162 15.63-38.381.126-1.684.247-3.294.381-4.8.074-.837.143-1.685.213-2.54.426-5.22.872-10.69 2.56-15.515 2.868-8.2 9.106-4.648 13.997-.706 9.207 7.415 17.302 16.476 25.399 25.536 9.967 11.154 19.934 22.31 31.976 30.4 6.398 4.296 13.262 7.056 20.785 7.12 5.89.046 11.782.032 17.673.018Z" fill="#5658DD"/></g></svg>