<svg aria-hidden="true" style="position: absolute; width: 0; height: 0; overflow: hidden;" version="1.1" xmlns="http://www.w3.org/2000/svg" xmlns:xlink="http://www.w3.org/1999/xlink">
<defs>
<symbol id="icon-first-svg-1" viewBox="0 0 32 32">
<path fill="#5d5dff" style="fill: var(--color1, #5d5dff)" d="M16 0c8.837 0 16 7.163 16 16s-7.163 16-16 16c-8.837 0-16-7.163-16-16s7.163-16 16-16z"></path>
<path fill="none" stroke="#f4f4ff" style="stroke: var(--color2, #f4f4ff)" stroke-linejoin="miter" stroke-linecap="square" stroke-miterlimit="4" stroke-width="1" d="M15 19.657l-2.090 1.099 0.59-3.441-2.5-2.437 3.455-0.502 1.545-3.13 1.545 3.13 3.455 0.502-1.5 1.462"></path>
<path fill="none" stroke="#cbccff" style="stroke: var(--color3, #cbccff)" stroke-linejoin="miter" stroke-linecap="square" stroke-miterlimit="4" stroke-width="1" d="M21.5 21h-4.5M21.5 18.5h-4.5"></path>
</symbol>
<symbol id="icon-first-svg-2" viewBox="0 0 32 32">
<path fill="#5d5dff" style="fill: var(--color1, #5d5dff)" d="M16 0c8.837 0 16 7.163 16 16s-7.163 16-16 16c-8.837 0-16-7.163-16-16s7.163-16 16-16z"></path>
<path fill="none" stroke="#f4f4ff" style="stroke: var(--color2, #f4f4ff)" stroke-linejoin="miter" stroke-linecap="square" stroke-miterlimit="4" stroke-width="1" d="M10.5 11.5h11v9h-11z"></path>
<path fill="none" stroke="#cbccff" style="stroke: var(--color3, #cbccff)" stroke-linejoin="miter" stroke-linecap="square" stroke-miterlimit="4" stroke-width="1" d="M13 14h6M13 16h6M13 18h2.5"></path>
</symbol>
<symbol id="icon-first-svg-3" viewBox="0 0 32 32">
<path fill="#5d5dff" style="fill: var(--color1, #5d5dff)" d="M16 0c8.837 0 16 7.163 16 16s-7.163 16-16 16c-8.837 0-16-7.163-16-16s7.163-16 16-16z"></path>
<path fill="none" stroke="#cbccff" style="stroke: var(--color3, #cbccff)" stroke-linejoin="miter" stroke-linecap="square" stroke-miterlimit="4" stroke-width="1" d="M18.75 16c0 3.038-1.231 5.5-2.75 5.5s-2.75-2.462-2.75-5.5c0-3.038 1.231-5.5 2.75-5.5s2.75 2.462 2.75 5.5z"></path>
<path fill="none" stroke="#f4f4ff" style="stroke: var(--color2, #f4f4ff)" stroke-linejoin="miter" stroke-linecap="square" stroke-miterlimit="4" stroke-width="1" d="M16 10.5v11M10.5 16h11"></path>
<path fill="none" stroke="#f4f4ff" style="stroke: var(--color2, #f4f4ff)" stroke-linejoin="miter" stroke-linecap="square" stroke-miterlimit="4" stroke-width="1" d="M21.5 16c0 3.038-2.462 5.5-5.5 5.5s-5.5-2.462-5.5-5.5c0-3.038 2.462-5.5 5.5-5.5s5.5 2.462 5.5 5.5z"></path>
</symbol>
<symbol id="icon-first-svg-4" viewBox="0 0 32 32">
<path fill="#5d5dff" style="fill: var(--color1, #5d5dff)" d="M16 0c8.837 0 16 7.163 16 16s-7.163 16-16 16c-8.837 0-16-7.163-16-16s7.163-16 16-16z"></path>
<path fill="none" stroke="#f4f4ff" style="stroke: var(--color2, #f4f4ff)" stroke-linejoin="miter" stroke-linecap="square" stroke-miterlimit="4" stroke-width="1" d="M19.5 21.5v-3.15c0.907-0.811 1.481-1.979 1.5-3.281l0-0.003c0-0.006 0-0.012 0-0.019 0-2.449-1.935-4.447-4.36-4.546l-0.009-0c-0.039-0.001-0.085-0.002-0.131-0.002-2.485 0-4.5 2.015-4.5 4.5 0 0.001 0 0.001 0 0.002v-0 0.5l-1 2.5 1 0.5v2c0 0.552 0.448 1 1 1v0h2c1.381 0 2.5-1.119 2.5-2.5v0-2.5"></path>
<path fill="none" stroke="#cbccff" style="stroke: var(--color3, #cbccff)" stroke-linejoin="miter" stroke-linecap="square" stroke-miterlimit="4" stroke-width="1" d="M19 15c0 0.828-0.672 1.5-1.5 1.5s-1.5-0.672-1.5-1.5c0-0.828 0.672-1.5 1.5-1.5s1.5 0.672 1.5 1.5z"></path>
</symbol>
<symbol id="icon-first-svg-5" viewBox="0 0 32 32">
<path fill="#5d5dff" style="fill: var(--color1, #5d5dff)" d="M16 0c8.837 0 16 7.163 16 16s-7.163 16-16 16c-8.837 0-16-7.163-16-16s7.163-16 16-16z"></path>
<path fill="none" stroke="#f4f4ff" style="stroke: var(--color2, #f4f4ff)" stroke-linejoin="miter" stroke-linecap="square" stroke-miterlimit="4" stroke-width="1" d="M14.5 21h5.114c0 0 0 0 0 0 0.447 0 0.826-0.294 0.954-0.699l0.002-0.007 1.384-4.5c0.028-0.088 0.044-0.189 0.044-0.294 0-0.552-0.447-1-0.999-1h-3.5v-2c0-1.187-0.625-1.747-1.382-1.93-0.035-0.008-0.074-0.013-0.115-0.013-0.278 0-0.503 0.225-0.503 0.503v0 1.941l-2.5 3"></path>
<path fill="none" stroke="#cbccff" style="stroke: var(--color3, #cbccff)" stroke-linejoin="miter" stroke-linecap="square" stroke-miterlimit="4" stroke-width="1" d="M11 15h2v6h-2z"></path>
</symbol>
<symbol id="icon-first-svg-6" viewBox="0 0 32 32">
<path fill="#5d5dff" style="fill: var(--color1, #5d5dff)" d="M16 0c8.837 0 16 7.163 16 16s-7.163 16-16 16c-8.837 0-16-7.163-16-16s7.163-16 16-16z"></path>
<path fill="none" stroke="#cbccff" style="stroke: var(--color3, #cbccff)" stroke-linejoin="miter" stroke-linecap="square" stroke-miterlimit="4" stroke-width="1" d="M19 12v-1M20.061 12.44l0.707-0.707M20.5 13.5h1M20.061 14.56l0.707 0.707M19 15v1M17.939 14.56l-0.707 0.707M17.5 13.5h-1M17.939 12.44l-0.707-0.707"></path>
<path fill="none" stroke="#cbccff" style="stroke: var(--color3, #cbccff)" stroke-linejoin="miter" stroke-linecap="square" stroke-miterlimit="4" stroke-width="1" d="M20.5 13.5c0 0.828-0.672 1.5-1.5 1.5s-1.5-0.672-1.5-1.5c0-0.828 0.672-1.5 1.5-1.5s1.5 0.672 1.5 1.5z"></path>
<path fill="none" stroke="#f4f4ff" style="stroke: var(--color2, #f4f4ff)" stroke-linejoin="miter" stroke-linecap="square" stroke-miterlimit="4" stroke-width="1" d="M14.93 11.59c-2.53 0.404-4.43 2.21-4.43 4.41 0 2.5 2.45 4.5 5.5 4.5 0.032 0.001 0.070 0.001 0.107 0.001 0.514 0 1.010-0.073 1.48-0.21l-0.037 0.009 2.95 1.2-0.3-2.6c0.415-0.411 0.751-0.9 0.984-1.444l0.011-0.030"></path>
</symbol>
<symbol id="icon-footer-svg-1" viewBox="0 0 32 32">
<path fill="#25282c" style="fill: var(--color4, #25282c)" d="M16 0c8.837 0 16 7.163 16 16s-7.163 16-16 16c-8.837 0-16-7.163-16-16s7.163-16 16-16z"></path>
<path fill="#5d5dff" style="fill: var(--color1, #5d5dff)" d="M24 11.5c-0.6 0.3-1.2 0.4-1.9 0.5 0.7-0.4 1.2-1 1.4-1.8-0.6 0.4-1.3 0.6-2.1 0.8-0.6-0.6-1.5-1-2.4-1-1.7 0-3.2 1.5-3.2 3.3 0 0.3 0 0.5 0.1 0.7-2.7-0.1-5.2-1.4-6.8-3.4-0.3 0.5-0.4 1-0.4 1.7 0 1.1 0.6 2.1 1.5 2.7-0.5 0-1-0.2-1.5-0.4 0 1.6 1.1 2.9 2.6 3.2-0.3 0.1-0.6 0.1-0.9 0.1-0.2 0-0.4 0-0.6-0.1 0.4 1.3 1.6 2.3 3.1 2.3-1.1 0.9-2.5 1.4-4.1 1.4h-0.8c1.5 0.9 3.2 1.5 5 1.5 6 0 9.3-5 9.3-9.3v-0.4c0.7-0.5 1.3-1.1 1.7-1.8z"></path>
</symbol>
<symbol id="icon-footer-svg-2" viewBox="0 0 32 32">
<path fill="#25282c" style="fill: var(--color4, #25282c)" d="M16 0c8.837 0 16 7.163 16 16s-7.163 16-16 16c-8.837 0-16-7.163-16-16s7.163-16 16-16z"></path>
<path fill="#5d5dff" style="fill: var(--color1, #5d5dff)" d="M16 8.2c-4.4 0-8 3.6-8 8 0 3.5 2.3 6.5 5.5 7.6 0.4 0.1 0.5-0.2 0.5-0.4v-1.4c-2.2 0.5-2.7-1-2.7-1-0.4-0.9-0.9-1.2-0.9-1.2-0.7-0.5 0.1-0.5 0.1-0.5 0.8 0.1 1.2 0.8 1.2 0.8 0.7 1.3 1.9 0.9 2.3 0.7 0.1-0.5 0.3-0.9 0.5-1.1-1.8-0.2-3.6-0.9-3.6-4 0-0.9 0.3-1.6 0.8-2.1-0.1-0.2-0.4-1 0.1-2.1 0 0 0.7-0.2 2.2 0.8 0.6-0.2 1.3-0.3 2-0.3s1.4 0.1 2 0.3c1.5-1 2.2-0.8 2.2-0.8 0.4 1.1 0.2 1.9 0.1 2.1 0.5 0.6 0.8 1.3 0.8 2.1 0 3.1-1.9 3.7-3.7 3.9 0.3 0.4 0.6 0.9 0.6 1.6v2.2c0 0.2 0.1 0.5 0.6 0.4 3.2-1.1 5.5-4.1 5.5-7.6-0.1-4.4-3.7-8-8.1-8z"></path>
</symbol>
<symbol id="icon-footer-svg-3" viewBox="0 0 32 32">
<path fill="#25282c" style="fill: var(--color4, #25282c)" d="M16 0c8.837 0 16 7.163 16 16s-7.163 16-16 16c-8.837 0-16-7.163-16-16s7.163-16 16-16z"></path>
<path fill="#5d5dff" style="fill: var(--color1, #5d5dff)" d="M14.023 24l-0.023-7h-3v-3h3v-2c0-2.7 1.671-4 4.080-4 1.153 0 2.144 0.086 2.433 0.124v2.821h-1.67c-1.31 0-1.563 0.623-1.563 1.536v1.519h3.72l-1 3h-2.72v7h-3.257z"></path>
</symbol>
<symbol id="icon-footer-svg-4" viewBox="0 0 32 32">
<path fill="#25282c" style="fill: var(--color4, #25282c)" d="M16 0c8.837 0 16 7.163 16 16s-7.163 16-16 16c-8.837 0-16-7.163-16-16s7.163-16 16-16z"></path>
<path fill="#5d5dff" style="fill: var(--color1, #5d5dff)" d="M21.105 11.892c0 0.53-0.43 0.96-0.96 0.96s-0.96-0.43-0.96-0.96c0-0.53 0.43-0.96 0.96-0.96s0.96 0.43 0.96 0.96z"></path>
<path fill="#5d5dff" style="fill: var(--color1, #5d5dff)" d="M12 16c0 2.206 1.794 4 4 4s4-1.794 4-4-1.794-4-4-4-4 1.794-4 4zM14 16c0-1.103 0.897-2 2-2s2 0.897 2 2-0.897 2-2 2-2-0.897-2-2z"></path>
<path fill="#5d5dff" style="fill: var(--color1, #5d5dff)" d="M12 24h8c2.056 0 4-1.944 4-4v-8c0-2.056-1.944-4-4-4h-8c-2.056 0-4 1.944-4 4v8c0 2.056 1.944 4 4 4zM10 12c0-0.935 1.065-2 2-2h8c0.935 0 2 1.065 2 2v8c0 0.935-1.065 2-2 2h-8c-0.953 0-2-1.047-2-2v-8z"></path>
</symbol>
<symbol id="icon-footer-svg-5" viewBox="0 0 32 32">
<path fill="#25282c" style="fill: var(--color4, #25282c)" d="M16 0c8.837 0 16 7.163 16 16s-7.163 16-16 16c-8.837 0-16-7.163-16-16s7.163-16 16-16z"></path>
<path fill="#5d5dff" style="fill: var(--color1, #5d5dff)" d="M8.7 8h14.6c0.4 0 0.7 0.3 0.8 0.7v14.6c0 0.4-0.3 0.7-0.7 0.7h-14.7c-0.4 0-0.7-0.3-0.7-0.6v-14.7c0-0.4 0.3-0.7 0.7-0.7zM10.4 21.6h2.4v-7.6h-2.4v7.6zM11.6 13c-0.8 0-1.4-0.7-1.4-1.4 0-0.8 0.6-1.4 1.4-1.4s1.4 0.6 1.4 1.4c-0.1 0.7-0.7 1.4-1.4 1.4zM19.2 21.6h2.3v-4.2c0-2-0.4-3.6-2.8-3.6-1.1 0-1.9 0.6-2.2 1.2v-1h-2.3v7.7h2.4v-3.8c0-1 0.2-2 1.4-2s1.2 1.1 1.2 2v3.7z"></path>
</symbol>
<symbol id="icon-logo" viewBox="0 0 32 32" width="32" height="32"><circle cx="16" cy="16" r="16" fill="#D8D8D8" fill-opacity=".01"/>
<path fill="#d8d8d8" style="fill: var(--color5, #d8d8d8)" opacity="0.01" d="M32 16c0 8.837-7.163 16-16 16s-16-7.163-16-16c0-8.837 7.163-16 16-16s16 7.163 16 16z"></path>
<path fill="#5658dd" style="fill: var(--color6, #5658dd)" d="M122.573 56.596c4.604-0.004 9.207-0.008 13.811-0.008v-6.188h-15.915c-3.409 0-6.876 0.115-10.363 0.231-7.927 0.265-15.958 0.533-23.643-0.546-9.377-1.317-18.306-6.631-26.137-12.31-8.86-6.424-16.62-14.353-24.385-22.288-5.551-5.671-11.103-11.345-17.062-16.474-3.568-3.075-7.243-6.043-11.129-8.59l-0.247-0.162c-4.029-2.645-10.975-7.207-14.406-1.573-2.67 4.385-2.627 10.852-2.589 16.532 0.010 1.457 0.020 2.862-0.017 4.167-0.41 14.523-1.735 35.234-16.715 39.856-3.027 0.853-6.107 1.144-9.222 1.156-12.318 0.036-24.636 0.020-36.954 0-0.029 0-0.064 0-0.099 0-1.424 0-2.833-0.058-4.228-0.172l0.183 0.012c-1.608-0.137-3.060-0.358-4.48-0.667l0.227 0.041c-8.35-1.769-15.982-6.378-23.599-10.979-10.815-6.532-21.598-13.044-34.355-11.375-8.62 1.127-15.677 6.227-22.739 11.33-6.946 5.020-13.897 10.043-22.345 11.294-3.194 0.414-6.396 0.514-9.608 0.518h-25.558v6.188c2.939 0 5.879 0.003 8.819 0.007 5.964 0.008 11.928 0.016 17.892-0.008 6.348-0.026 12.632-0.432 18.436-3.623 4.131-2.272 7.78-5.501 11.363-8.703l0.315-0.282c6.614-5.913 13.448-12.023 21.969-13.801 13.75-2.871 25.173 4.958 36.645 12.821 9.25 6.34 18.53 12.7 29.088 13.494 1.376 0.078 2.752 0.094 4.129 0.094 4.228 0 8.46 0.033 12.693 0.066h0.002c8.984 0.070 17.973 0.14 26.944-0.105 5.015-0.2 10.067-1.178 14.061-4.845 4.575-4.2 6.746-10.78 8.132-17.050 1.36-6.15 1.575-12.406 1.79-18.655 0.192-5.566 0.384-11.127 1.384-16.604 1.866-10.305 9.264-7.8 15.534-3.727 6.277 4.077 11.959 9.314 17.397 14.675 2.712 2.672 5.358 5.429 7.989 8.202 11.221 11.826 22.78 23.392 36.594 31.282 6.891 3.932 13.893 6.727 21.684 6.757 9.571 0.027 19.142 0.019 28.713 0.010zM101.61 73.713h34.776v-6.53h-37.288c-8.066-0.001-15.021-2.32-22.11-6.567-4.636-2.78-9.065-5.996-13.362-9.39-6.67-5.27-12.936-11.144-19.004-17.26-2.826-2.849-5.58-5.859-8.343-8.88v-0.001l-0.002-0.001c-7.002-7.658-14.072-15.387-22.552-20.731-2.756-1.74-6.71-4.096-9.888-2.508-3.51 1.754-4.032 7.51-4.378 11.32l-0.031 0.345c-0.23 2.474-0.354 4.957-0.479 7.44-0.108 2.156-0.216 4.312-0.393 6.462-1.207 14.503-3.213 35.873-18.66 39.185-6.317 1.354-13.14 1.075-19.79 0.803-2.678-0.11-5.328-0.217-7.906-0.217-2.698 0-5.461 0.105-8.25 0.212-6.893 0.264-13.939 0.534-20.528-0.774-0.908-0.179-1.623-0.355-2.326-0.556l0.201 0.049c-8.336-2.326-15.482-8.267-22.414-14.031-1.183-1.006-2.801-2.338-4.434-3.652l-0.538-0.418c-9.019-7.151-19.879-15.403-31.485-13.888-9.631 1.257-16.67 9.365-23.027 16.862l-0.736 0.869c-2.878 3.402-5.786 6.839-9.158 9.623-5.537 4.57-11.487 5.689-18.203 5.704h-30.3v6.53h32.797c10.963-0.003 17.51-5.925 24.177-14.997 0.089-0.079 0.822-1.084 1.55-2.092l0.682-0.993c4.269-5.944 8.641-12.032 14.593-15.828 7.862-5.016 16.516-3.312 24.26 1.137 6.454 3.708 12.139 8.948 17.819 14.184 6.952 6.407 13.896 12.808 22.231 16.384 6.85 2.937 14.655 2.645 22.133 2.366 2.168-0.081 4.308-0.161 6.39-0.161 3.339 0 6.686 0.044 10.036 0.090 7.171 0.096 14.355 0.192 21.494-0.151 3.607-0.247 7.134-1.12 10.179-3.403 10.201-7.67 11.344-24.734 12.253-38.302 0.129-1.926 0.253-3.781 0.398-5.53 0.073-0.905 0.117-1.966 0.165-3.116 0.235-5.66 0.559-13.483 4.932-15.556 4.765-2.26 11.265 3.475 15.094 6.852l0.642 0.566c4.82 4.22 9.218 8.99 13.615 13.757v0.001c2.128 2.307 4.255 4.613 6.429 6.857 8.131 8.388 16.541 16.488 25.631 23.543 4.93 3.826 9.967 7.6 15.457 10.354 0.589 0.295 1.174 0.563 1.744 0.816 1.313 0.612 2.934 1.231 4.601 1.745l0.288 0.077c3.611 1.062 7.295 1.387 11.018 1.4zM136.384 90.836h-9.913c-6.553 0-13.107 0.002-19.66 0-4.527-0.047-8.945-0.804-13.235-2.45-10.785-4.139-19.82-12.678-28.466-20.85l-1.474-1.391c-7.104-6.698-13.908-13.763-20.714-20.831-1.618-1.68-3.236-3.36-4.858-5.035-0.588-0.608-1.32-1.371-2.049-2.135l-0.194-0.205-0.004-0.003c-3.452-3.615-6.923-7.251-10.765-10.315-2.574-2.054-6.087-4.805-9.394-4.044-3.824 0.88-4.799 6.366-5.442 9.984l-0.002 0.012c-0.758 4.265-1.079 8.608-1.399 12.947-0.176 2.39-0.353 4.78-0.602 7.154l-0.030 0.287c-0.725 6.877-1.465 13.895-3.492 20.462-2.421 7.78-6.827 14.070-14.264 15.817-1.839 0.43-3.719 0.578-5.594 0.59-6.615 0.048-13.231 0.034-19.847 0.020-3.185-0.008-6.37-0.014-9.555-0.014-2.793 0-5.636 0.099-8.498 0.198-6.494 0.226-13.079 0.456-19.372-0.462-5.313-0.784-10.030-3.788-14.275-7.331-5.38-4.49-10.131-9.842-14.869-15.179h-0.001c-1.723-1.94-3.444-3.88-5.193-5.774l-0.523-0.567c-6.835-7.411-15.246-16.532-24.988-17.808-11.331-1.484-18.043 11.1-22.837 20.643 0.035-0.201-0.58 1.034-1.185 2.276l-0.655 1.49c-4.313 8.946-9.365 19.424-18.518 21.785-4.179 1.077-8.659 0.944-13.032 0.813-1.221-0.046-2.697-0.076-4.178-0.084l-0.039-0h-26.267v-6.867c4.101 0 8.208 0.047 12.318 0.095h0.001c8.576 0.1 17.161 0.2 25.711-0.134 0.897-0.036 1.8-0.12 2.707-0.25 10.16-2.050 15.326-11.566 20.531-21.156 4.544-8.371 9.119-16.799 17.074-20.362 13.818-6.19 27.956 9.022 38.404 20.263 1.725 1.856 3.35 3.603 4.855 5.129 7.616 7.714 16.294 16.092 27.051 16.393 11.471 0.32 22.97 0.22 34.462 0.12h0.003c5.606-0.050 11.21-0.098 16.809-0.098h0.104c0.617 0 1.232 0 1.843-0.016 16.273-0.445 20.51-17.908 22.21-33.371 0.346-3.142 0.591-6.296 0.837-9.45 0.247-3.161 0.493-6.323 0.84-9.472l0.108-1.004c0.388-3.628 0.821-7.69 2.559-10.773 2.315-4.107 6.287-3.072 9.613-1.132 5.74 3.349 10.6 8.603 15.282 13.667 0.752 0.813 1.5 1.621 2.245 2.416 5.67 6.040 11.382 12.049 17.287 17.798 1.693 1.655 3.475 3.366 5.273 5.061l0.99 0.924c8.896 8.323 18.248 17.070 29.022 21.983 3.316 1.51 6.756 2.583 10.317 3.039 8.409 1.075 17.098 0.814 25.708 0.557 3.765-0.113 7.515-0.225 11.22-0.225v6.866zM127.957 107.972c2.809-0.006 5.618-0.012 8.426-0.012v-7.212c-3.055 0-6.111 0.011-9.167 0.022-6.401 0.023-12.802 0.046-19.201-0.032-2.558-0.086-5.090-0.479-7.589-1.090-3.144-0.857-6.152-2.116-9.061-3.706-9.331-5.104-17.215-13.053-24.895-20.797l-0.713-0.718c-5.122-5.161-10.172-10.407-15.223-15.654-3.438-3.577-6.047-6.277-8.662-8.972l0.658 0.682-0.735-0.757c-2.206-2.274-4.413-4.548-6.687-6.736-0.465-0.449-0.989-0.976-1.558-1.55-3.887-3.915-9.942-10.014-14.607-8.113-4.638 1.889-5.276 10.692-5.702 16.578-0.073 1-0.14 1.917-0.218 2.7-0.090 0.562-0.297 2.758-0.486 4.96l-0.098 1.414c-0.15 1.747-0.3 3.495-0.471 5.24-0.356 3.64-0.731 7.284-1.316 10.889-2.192 13.512-7.392 25.074-20.754 25.599-0.652 0.026-21.951 0.041-31.942 0.041-2.904 0-5.841 0.082-8.79 0.166-6.54 0.184-13.134 0.37-19.546-0.342-10.072-1.138-17.854-9.838-24.557-17.64-2.389-2.78-4.707-5.638-7.025-8.496-3.659-4.51-7.318-9.022-11.256-13.23-5.676-6.064-13.585-14.117-22.028-12.775-8.947 1.422-13.671 13.005-17.106 21.428-0.185 0.456-0.367 0.902-0.546 1.337 0.349-1.093-0.132 0.079-0.607 1.254l-0.82 2.296c-3.349 8.42-7.018 17.645-14.128 22.505-0.463 0.315-0.927 0.606-1.393 0.872s-0.933 0.51-1.401 0.73c-3.091 1.454-6.395 1.854-9.719 1.894-8.57 0.016-17.141 0.011-25.712 0.006-4.107-0.002-8.213-0.004-12.32-0.004v7.209l12.677 0.002c8.452 0.002 16.904 0.004 25.355-0.002h0.054c0.881 0 1.774 0 2.677-0.047 1.044-0.063 1.999-0.174 2.937-0.335l-0.157 0.022c0.951-0.158 1.89-0.383 2.816-0.676 9.769-3.059 15.001-13.11 18.74-22.971 0.751-1.98 1.488-4.269 2.269-6.695 3.133-9.728 6.978-21.668 15.287-24.802 8.94-3.373 17.979 6.948 23.638 13.467 3.797 4.374 7.342 9.006 10.887 13.638 3.023 3.95 6.046 7.9 9.225 11.69 6.577 7.84 14.248 15.777 24.285 16.611 6.494 0.525 13.095 0.379 19.664 0.233 3.049-0.067 6.090-0.134 9.111-0.134h29.447c3.176-0.001 6.357-0.128 9.429-1.119 13.112-4.757 14.565-24.162 15.63-38.381 0.126-1.684 0.247-3.294 0.381-4.8 0.074-0.837 0.143-1.685 0.213-2.54 0.426-5.22 0.872-10.69 2.56-15.515 2.868-8.2 9.106-4.648 13.997-0.706 9.207 7.415 17.302 16.476 25.399 25.536 9.967 11.154 19.934 22.31 31.976 30.4 6.398 4.296 13.262 7.056 20.785 7.12 5.89 0.046 11.782 0.032 17.673 0.018z"></path>
</symbol>
<symbol id="icon-second-svg" viewBox="0 0 43 32">
<path fill="#48bb78" style="fill: var(--color7, #48bb78)" d="M36.551 0.996l-22.368 22.382-8.156-8.16c-0.644-0.644-1.533-1.042-2.516-1.042-1.965 0-3.558 1.593-3.558 3.558 0 0.982 0.398 1.872 1.042 2.516l10.667 10.667c0.643 0.643 1.532 1.041 2.514 1.041s1.87-0.398 2.514-1.041l24.889-24.889c0.644-0.644 1.042-1.533 1.042-2.516 0-1.964-1.592-3.556-3.556-3.556-0.982 0-1.87 0.398-2.514 1.041l0-0z"></path>
</symbol>
</defs>
</svg>
