<svg width="32" height="32" fill="none" xmlns="http://www.w3.org/2000/svg"><rect width="32" height="32" rx="16" fill="#25282C"/><circle cx="20.145" cy="11.892" r=".96" fill="#5D5DFF"/><path fill-rule="evenodd" clip-rule="evenodd" d="M12 16c0 2.206 1.794 4 4 4s4-1.794 4-4-1.794-4-4-4-4 1.794-4 4Zm2 0c0-1.103.897-2 2-2s2 .897 2 2-.897 2-2 2-2-.897-2-2Z" fill="#5D5DFF"/><path fill-rule="evenodd" clip-rule="evenodd" d="M12 24h8c2.056 0 4-1.944 4-4v-8c0-2.056-1.944-4-4-4h-8c-2.056 0-4 1.944-4 4v8c0 2.056 1.944 4 4 4Zm-2-12c0-.935 1.065-2 2-2h8c.935 0 2 1.065 2 2v8c0 .935-1.065 2-2 2h-8c-.953 0-2-1.047-2-2v-8Z" fill="#5D5DFF"/></svg>