<svg width="32" height="32" fill="none" xmlns="http://www.w3.org/2000/svg"><rect width="32" height="32" rx="16" fill="#25282C"/><path fill-rule="evenodd" clip-rule="evenodd" d="M8.7 8h14.6c.4 0 .7.3.8.7v14.6c0 .4-.3.7-.7.7H8.7c-.4 0-.7-.3-.7-.6V8.7c0-.4.3-.7.7-.7Zm1.7 13.6h2.4V14h-2.4v7.6Zm1.2-8.6c-.8 0-1.4-.7-1.4-1.4 0-.8.6-1.4 1.4-1.4.8 0 1.4.6 1.4 1.4-.1.7-.7 1.4-1.4 1.4Zm7.6 8.6h2.3v-4.2c0-2-.4-3.6-2.8-3.6-1.1 0-1.9.6-2.2 1.2v-1h-2.3v7.7h2.4v-3.8c0-1 .2-2 1.4-2s1.2 1.1 1.2 2v3.7Z" fill="#5D5DFF"/></svg>