<svg aria-hidden="true" style="position:absolute;width:0;height:0" xmlns="http://www.w3.org/2000/svg" overflow="hidden"><defs><symbol id="icon-first-svg-1" viewBox="0 0 32 32"><path fill="var(--color1, #5d5dff)" d="M16 0c8.837 0 16 7.163 16 16s-7.163 16-16 16S0 24.837 0 16 7.163 0 16 0z"/><path fill="none" stroke="var(--color2, #f4f4ff)" stroke-linecap="square" d="M15 19.657l-2.09 1.099.59-3.441-2.5-2.437 3.455-.502L16 11.246l1.545 3.13 3.455.502-1.5 1.462"/><path fill="none" stroke="var(--color3, #cbccff)" stroke-linecap="square" d="M21.5 21H17m4.5-2.5H17"/></symbol><symbol id="icon-first-svg-2" viewBox="0 0 32 32"><path fill="var(--color1, #5d5dff)" d="M16 0c8.837 0 16 7.163 16 16s-7.163 16-16 16S0 24.837 0 16 7.163 0 16 0z"/><path fill="none" stroke="var(--color2, #f4f4ff)" stroke-linecap="square" d="M10.5 11.5h11v9h-11z"/><path fill="none" stroke="var(--color3, #cbccff)" stroke-linecap="square" d="M13 14h6m-6 2h6m-6 2h2.5"/></symbol><symbol id="icon-first-svg-3" viewBox="0 0 32 32"><path fill="var(--color1, #5d5dff)" d="M16 0c8.837 0 16 7.163 16 16s-7.163 16-16 16S0 24.837 0 16 7.163 0 16 0z"/><path fill="none" stroke="var(--color3, #cbccff)" stroke-linecap="square" d="M18.75 16c0 3.038-1.231 5.5-2.75 5.5s-2.75-2.462-2.75-5.5 1.231-5.5 2.75-5.5 2.75 2.462 2.75 5.5z"/><path fill="none" stroke="var(--color2, #f4f4ff)" stroke-linecap="square" d="M16 10.5v11M10.5 16h11m0 0a5.5 5.5 0 11-11 0 5.5 5.5 0 1111 0z"/></symbol><symbol id="icon-first-svg-4" viewBox="0 0 32 32"><path fill="var(--color1, #5d5dff)" d="M16 0c8.837 0 16 7.163 16 16s-7.163 16-16 16S0 24.837 0 16 7.163 0 16 0z"/><path fill="none" stroke="var(--color2, #f4f4ff)" stroke-linecap="square" d="M19.5 21.5v-3.15a4.477 4.477 0 001.5-3.281v-.022a4.55 4.55 0 00-4.36-4.546h-.009A4.5 4.5 0 0012 14.999v.502l-1 2.5 1 .5v2a1 1 0 001 1v0h2a2.5 2.5 0 002.5-2.5v0-2.5"/><path fill="none" stroke="var(--color3, #cbccff)" stroke-linecap="square" d="M19 15a1.5 1.5 0 11-3.001-.001A1.5 1.5 0 0119 15z"/></symbol><symbol id="icon-first-svg-5" viewBox="0 0 32 32"><path fill="var(--color1, #5d5dff)" d="M16 0c8.837 0 16 7.163 16 16s-7.163 16-16 16S0 24.837 0 16 7.163 0 16 0z"/><path fill="none" stroke="var(--color2, #f4f4ff)" stroke-linecap="square" d="M14.5 21h5.114s0 0 0 0c.447 0 .826-.294.954-.699l.002-.007 1.384-4.5a1 1 0 00-.955-1.294h-3.5v-2c0-1.187-.625-1.747-1.382-1.93a.503.503 0 00-.618.49v1.941l-2.5 3"/><path fill="none" stroke="var(--color3, #cbccff)" stroke-linecap="square" d="M11 15h2v6h-2z"/></symbol><symbol id="icon-first-svg-6" viewBox="0 0 32 32"><path fill="var(--color1, #5d5dff)" d="M16 0c8.837 0 16 7.163 16 16s-7.163 16-16 16S0 24.837 0 16 7.163 0 16 0z"/><path fill="none" stroke="var(--color3, #cbccff)" stroke-linecap="square" d="M19 12v-1m1.061 1.44l.707-.707M20.5 13.5h1m-1.439 1.06l.707.707M19 15v1m-1.061-1.44l-.707.707M17.5 13.5h-1m1.439-1.06l-.707-.707M20.5 13.5a1.5 1.5 0 11-3.001-.001 1.5 1.5 0 013.001.001z"/><path fill="none" stroke="var(--color2, #f4f4ff)" stroke-linecap="square" d="M14.93 11.59c-2.53.404-4.43 2.21-4.43 4.41 0 2.5 2.45 4.5 5.5 4.5l.107.001c.514 0 1.01-.073 1.48-.21l-.037.009 2.95 1.2-.3-2.6c.415-.411.751-.9.984-1.444l.011-.03"/></symbol><symbol id="icon-footer-svg-1" viewBox="0 0 32 32"><path fill="var(--color4, #25282c)" d="M16 0c8.837 0 16 7.163 16 16s-7.163 16-16 16S0 24.837 0 16 7.163 0 16 0z"/><path fill="var(--color1, #5d5dff)" d="M24 11.5c-.6.3-1.2.4-1.9.5.7-.4 1.2-1 1.4-1.8-.6.4-1.3.6-2.1.8-.6-.6-1.5-1-2.4-1-1.7 0-3.2 1.5-3.2 3.3 0 .3 0 .5.1.7-2.7-.1-5.2-1.4-6.8-3.4-.3.5-.4 1-.4 1.7 0 1.1.6 2.1 1.5 2.7-.5 0-1-.2-1.5-.4 0 1.6 1.1 2.9 2.6 3.2-.3.1-.6.1-.9.1-.2 0-.4 0-.6-.1.4 1.3 1.6 2.3 3.1 2.3-1.1.9-2.5 1.4-4.1 1.4H8c1.5.9 3.2 1.5 5 1.5 6 0 9.3-5 9.3-9.3v-.4c.7-.5 1.3-1.1 1.7-1.8z"/></symbol><symbol id="icon-footer-svg-2" viewBox="0 0 32 32"><path fill="var(--color4, #25282c)" d="M16 0c8.837 0 16 7.163 16 16s-7.163 16-16 16S0 24.837 0 16 7.163 0 16 0z"/><path fill="var(--color1, #5d5dff)" d="M16 8.2c-4.4 0-8 3.6-8 8 0 3.5 2.3 6.5 5.5 7.6.4.1.5-.2.5-.4V22c-2.2.5-2.7-1-2.7-1-.4-.9-.9-1.2-.9-1.2-.7-.5.1-.5.1-.5.8.1 1.2.8 1.2.8.7 1.3 1.9.9 2.3.7.1-.5.3-.9.5-1.1-1.8-.2-3.6-.9-3.6-4 0-.9.3-1.6.8-2.1-.1-.2-.4-1 .1-2.1 0 0 .7-.2 2.2.8.6-.2 1.3-.3 2-.3s1.4.1 2 .3c1.5-1 2.2-.8 2.2-.8.4 1.1.2 1.9.1 2.1.5.6.8 1.3.8 2.1 0 3.1-1.9 3.7-3.7 3.9.3.4.6.9.6 1.6v2.2c0 .2.1.5.6.4 3.2-1.1 5.5-4.1 5.5-7.6-.1-4.4-3.7-8-8.1-8z"/></symbol><symbol id="icon-footer-svg-3" viewBox="0 0 32 32"><path fill="var(--color4, #25282c)" d="M16 0c8.837 0 16 7.163 16 16s-7.163 16-16 16S0 24.837 0 16 7.163 0 16 0z"/><path fill="var(--color1, #5d5dff)" d="M14.023 24L14 17h-3v-3h3v-2c0-2.7 1.671-4 4.08-4 1.153 0 2.144.086 2.433.124v2.821h-1.67c-1.31 0-1.563.623-1.563 1.536V14H21l-1 3h-2.72v7h-3.257z"/></symbol><symbol id="icon-footer-svg-4" viewBox="0 0 32 32"><path fill="var(--color4, #25282c)" d="M16 0c8.837 0 16 7.163 16 16s-7.163 16-16 16S0 24.837 0 16 7.163 0 16 0z"/><path fill="var(--color1, #5d5dff)" d="M21.105 11.892a.96.96 0 11-1.92 0 .96.96 0 011.92 0zM12 16c0 2.206 1.794 4 4 4s4-1.794 4-4-1.794-4-4-4-4 1.794-4 4zm2 0c0-1.103.897-2 2-2s2 .897 2 2-.897 2-2 2-2-.897-2-2z"/><path fill="var(--color1, #5d5dff)" d="M12 24h8c2.056 0 4-1.944 4-4v-8c0-2.056-1.944-4-4-4h-8c-2.056 0-4 1.944-4 4v8c0 2.056 1.944 4 4 4zm-2-12c0-.935 1.065-2 2-2h8c.935 0 2 1.065 2 2v8c0 .935-1.065 2-2 2h-8c-.953 0-2-1.047-2-2v-8z"/></symbol><symbol id="icon-footer-svg-5" viewBox="0 0 32 32"><path fill="var(--color4, #25282c)" d="M16 0c8.837 0 16 7.163 16 16s-7.163 16-16 16S0 24.837 0 16 7.163 0 16 0z"/><path fill="var(--color1, #5d5dff)" d="M8.7 8h14.6c.4 0 .7.3.8.7v14.6c0 .4-.3.7-.7.7H8.7c-.4 0-.7-.3-.7-.6V8.7c0-.4.3-.7.7-.7zm1.7 13.6h2.4V14h-2.4v7.6zm1.2-8.6c-.8 0-1.4-.7-1.4-1.4 0-.8.6-1.4 1.4-1.4s1.4.6 1.4 1.4c-.1.7-.7 1.4-1.4 1.4zm7.6 8.6h2.3v-4.2c0-2-.4-3.6-2.8-3.6-1.1 0-1.9.6-2.2 1.2v-1h-2.3v7.7h2.4v-3.8c0-1 .2-2 1.4-2s1.2 1.1 1.2 2v3.7z"/></symbol><symbol id="icon-logo" viewBox="0 0 32 32"><circle cx="16" cy="16" r="16" fill="#D8D8D8" fill-opacity=".01"/><path fill="var(--color5, #d8d8d8)" opacity=".01" d="M32 16c0 8.837-7.163 16-16 16S0 24.837 0 16 7.163 0 16 0s16 7.163 16 16z"/><path fill="var(--color6, #5658dd)" d="M122.573 56.596c4.604-.004 9.207-.008 13.811-.008V50.4h-15.915c-3.409 0-6.876.115-10.363.231-7.927.265-15.958.533-23.643-.546-9.377-1.317-18.306-6.631-26.137-12.31-8.86-6.424-16.62-14.353-24.385-22.288C30.39 9.816 24.838 4.142 18.879-.987 15.311-4.062 11.636-7.03 7.75-9.577l-.247-.162c-4.029-2.645-10.975-7.207-14.406-1.573C-9.573-6.927-9.53-.46-9.492 5.22c.01 1.457.02 2.862-.017 4.167-.41 14.523-1.735 35.234-16.715 39.856-3.027.853-6.107 1.144-9.222 1.156-12.318.036-24.636.02-36.954 0h-.099c-1.424 0-2.833-.058-4.228-.172l.183.012a34.583 34.583 0 01-4.48-.667l.227.041c-8.35-1.769-15.982-6.378-23.599-10.979-10.815-6.532-21.598-13.044-34.355-11.375-8.62 1.127-15.677 6.227-22.739 11.33-6.946 5.02-13.897 10.043-22.345 11.294-3.194.414-6.396.514-9.608.518h-25.558v6.188c2.939 0 5.879.003 8.819.007 5.964.008 11.928.016 17.892-.008 6.348-.026 12.632-.432 18.436-3.623 4.131-2.272 7.78-5.501 11.363-8.703l.315-.282c6.614-5.913 13.448-12.023 21.969-13.801 13.75-2.871 25.173 4.958 36.645 12.821 9.25 6.34 18.53 12.7 29.088 13.494 1.376.078 2.752.094 4.129.094 4.228 0 8.46.033 12.693.066h.002c8.984.07 17.973.14 26.944-.105 5.015-.2 10.067-1.178 14.061-4.845 4.575-4.2 6.746-10.78 8.132-17.05 1.36-6.15 1.575-12.406 1.79-18.655.192-5.566.384-11.127 1.384-16.604 1.866-10.305 9.264-7.8 15.534-3.727 6.277 4.077 11.959 9.314 17.397 14.675 2.712 2.672 5.358 5.429 7.989 8.202 11.221 11.826 22.78 23.392 36.594 31.282 6.891 3.932 13.893 6.727 21.684 6.757 9.571.027 19.142.019 28.713.01zM101.61 73.713h34.776v-6.53H99.098c-8.066-.001-15.021-2.32-22.11-6.567-4.636-2.78-9.065-5.996-13.362-9.39-6.67-5.27-12.936-11.144-19.004-17.26-2.826-2.849-5.58-5.859-8.343-8.88v-.001l-.002-.001C29.275 17.426 22.205 9.697 13.725 4.353c-2.756-1.74-6.71-4.096-9.888-2.508-3.51 1.754-4.032 7.51-4.378 11.32l-.031.345c-.23 2.474-.354 4.957-.479 7.44-.108 2.156-.216 4.312-.393 6.462-1.207 14.503-3.213 35.873-18.66 39.185-6.317 1.354-13.14 1.075-19.79.803-2.678-.11-5.328-.217-7.906-.217-2.698 0-5.461.105-8.25.212-6.893.264-13.939.534-20.528-.774a27.518 27.518 0 01-2.326-.556l.201.049c-8.336-2.326-15.482-8.267-22.414-14.031a226.364 226.364 0 00-4.434-3.652l-.538-.418c-9.019-7.151-19.879-15.403-31.485-13.888-9.631 1.257-16.67 9.365-23.027 16.862l-.736.869c-2.878 3.402-5.786 6.839-9.158 9.623-5.537 4.57-11.487 5.689-18.203 5.704h-30.3v6.53h32.797c10.963-.003 17.51-5.925 24.177-14.997.089-.079.822-1.084 1.55-2.092l.682-.993c4.269-5.944 8.641-12.032 14.593-15.828 7.862-5.016 16.516-3.312 24.26 1.137 6.454 3.708 12.139 8.948 17.819 14.184 6.952 6.407 13.896 12.808 22.231 16.384 6.85 2.937 14.655 2.645 22.133 2.366 2.168-.081 4.308-.161 6.39-.161 3.339 0 6.686.044 10.036.09 7.171.096 14.355.192 21.494-.151 3.607-.247 7.134-1.12 10.179-3.403C-.456 62.579.687 45.515 1.596 31.947c.129-1.926.253-3.781.398-5.53.073-.905.117-1.966.165-3.116.235-5.66.559-13.483 4.932-15.556 4.765-2.26 11.265 3.475 15.094 6.852l.642.566c4.82 4.22 9.218 8.99 13.615 13.757v.001c2.128 2.307 4.255 4.613 6.429 6.857 8.131 8.388 16.541 16.488 25.631 23.543 4.93 3.826 9.967 7.6 15.457 10.354.589.295 1.174.563 1.744.816 1.313.612 2.934 1.231 4.601 1.745l.288.077c3.611 1.062 7.295 1.387 11.018 1.4zm34.774 17.123h-9.913c-6.553 0-13.107.002-19.66 0-4.527-.047-8.945-.804-13.235-2.45-10.785-4.139-19.82-12.678-28.466-20.85l-1.474-1.391c-7.104-6.698-13.908-13.763-20.714-20.831a2569.51 2569.51 0 00-4.858-5.035c-.588-.608-1.32-1.371-2.049-2.135l-.194-.205-.004-.003c-3.452-3.615-6.923-7.251-10.765-10.315-2.574-2.054-6.087-4.805-9.394-4.044-3.824.88-4.799 6.366-5.442 9.984l-.002.012c-.758 4.265-1.079 8.608-1.399 12.947-.176 2.39-.353 4.78-.602 7.154l-.03.287c-.725 6.877-1.465 13.895-3.492 20.462-2.421 7.78-6.827 14.07-14.264 15.817-1.839.43-3.719.578-5.594.59-6.615.048-13.231.034-19.847.02-3.185-.008-6.37-.014-9.555-.014-2.793 0-5.636.099-8.498.198-6.494.226-13.079.456-19.372-.462-5.313-.784-10.03-3.788-14.275-7.331-5.38-4.49-10.131-9.842-14.869-15.179h-.001c-1.723-1.94-3.444-3.88-5.193-5.774l-.523-.567c-6.835-7.411-15.246-16.532-24.988-17.808-11.331-1.484-18.043 11.1-22.837 20.643.035-.201-.58 1.034-1.185 2.276l-.655 1.49c-4.313 8.946-9.365 19.424-18.518 21.785-4.179 1.077-8.659.944-13.032.813a134.402 134.402 0 00-4.178-.084h-26.306v-6.867c4.101 0 8.208.047 12.318.095h.001c8.576.1 17.161.2 25.711-.134.897-.036 1.8-.12 2.707-.25 10.16-2.05 15.326-11.566 20.531-21.156 4.544-8.371 9.119-16.799 17.074-20.362 13.818-6.19 27.956 9.022 38.404 20.263 1.725 1.856 3.35 3.603 4.855 5.129 7.616 7.714 16.294 16.092 27.051 16.393 11.471.32 22.97.22 34.462.12h.003c5.606-.05 11.21-.098 16.809-.098h.104c.617 0 1.232 0 1.843-.016 16.273-.445 20.51-17.908 22.21-33.371.346-3.142.591-6.296.837-9.45.247-3.161.493-6.323.84-9.472l.108-1.004c.388-3.628.821-7.69 2.559-10.773 2.315-4.107 6.287-3.072 9.613-1.132 5.74 3.349 10.6 8.603 15.282 13.667.752.813 1.5 1.621 2.245 2.416 5.67 6.04 11.382 12.049 17.287 17.798a406.037 406.037 0 005.273 5.061l.99.924C69.014 66.94 78.366 75.687 89.14 80.6c3.316 1.51 6.756 2.583 10.317 3.039 8.409 1.075 17.098.814 25.708.557 3.765-.113 7.515-.225 11.22-.225v6.866zm-8.427 17.136c2.809-.006 5.618-.012 8.426-.012v-7.212c-3.055 0-6.111.011-9.167.022-6.401.023-12.802.046-19.201-.032-2.558-.086-5.09-.479-7.589-1.09-3.144-.857-6.152-2.116-9.061-3.706-9.331-5.104-17.215-13.053-24.895-20.797l-.713-.718c-5.122-5.161-10.172-10.407-15.223-15.654a2512.923 2512.923 0 00-8.662-8.972l.658.682-.735-.757c-2.206-2.274-4.413-4.548-6.687-6.736-.465-.449-.989-.976-1.558-1.55-3.887-3.915-9.942-10.014-14.607-8.113-4.638 1.889-5.276 10.692-5.702 16.578-.073 1-.14 1.917-.218 2.7-.09.562-.297 2.758-.486 4.96l-.098 1.414c-.15 1.747-.3 3.495-.471 5.24-.356 3.64-.731 7.284-1.316 10.889C8.46 88.62 3.26 100.182-10.102 100.707c-.652.026-21.951.041-31.942.041-2.904 0-5.841.082-8.79.166-6.54.184-13.134.37-19.546-.342-10.072-1.138-17.854-9.838-24.557-17.64-2.389-2.78-4.707-5.638-7.025-8.496-3.659-4.51-7.318-9.022-11.256-13.23-5.676-6.064-13.585-14.117-22.028-12.775-8.947 1.422-13.671 13.005-17.106 21.428-.185.456-.367.902-.546 1.337.349-1.093-.132.079-.607 1.254l-.82 2.296c-3.349 8.42-7.018 17.645-14.128 22.505-.463.315-.927.606-1.393.872s-.933.51-1.401.73c-3.091 1.454-6.395 1.854-9.719 1.894-8.57.016-17.141.011-25.712.006-4.107-.002-8.213-.004-12.32-.004v7.209l12.677.002c8.452.002 16.904.004 25.355-.002h.054c.881 0 1.774 0 2.677-.047a26.634 26.634 0 002.937-.335l-.157.022c.951-.158 1.89-.383 2.816-.676 9.769-3.059 15.001-13.11 18.74-22.971.751-1.98 1.488-4.269 2.269-6.695 3.133-9.728 6.978-21.668 15.287-24.802 8.94-3.373 17.979 6.948 23.638 13.467 3.797 4.374 7.342 9.006 10.887 13.638 3.023 3.95 6.046 7.9 9.225 11.69 6.577 7.84 14.248 15.777 24.285 16.611 6.494.525 13.095.379 19.664.233 3.049-.067 6.09-.134 9.111-.134h29.447c3.176-.001 6.357-.128 9.429-1.119 13.112-4.757 14.565-24.162 15.63-38.381.126-1.684.247-3.294.381-4.8.074-.837.143-1.685.213-2.54.426-5.22.872-10.69 2.56-15.515 2.868-8.2 9.106-4.648 13.997-.706 9.207 7.415 17.302 16.476 25.399 25.536 9.967 11.154 19.934 22.31 31.976 30.4 6.398 4.296 13.262 7.056 20.785 7.12 5.89.046 11.782.032 17.673.018z"/></symbol><symbol id="icon-second-svg" viewBox="0 0 43 32"><path fill="var(--color7, #48bb78)" d="M36.551.996L14.183 23.378l-8.156-8.16A3.558 3.558 0 00.995 20.25l10.667 10.667c.643.643 1.532 1.041 2.514 1.041s1.87-.398 2.514-1.041L41.579 6.028A3.556 3.556 0 1036.551.997z"/></symbol></defs></svg>